<svg width="196" height="93" viewBox="0 0 196 93" fill="none" xmlns="http://www.w3.org/2000/svg">
<path d="M119 0L124.492 21.7423L143.749 10.2513L132.258 29.5085L154 35L132.258 40.4915L143.749 59.7487L124.492 48.2577L119 70L113.508 48.2577L94.2513 59.7487L105.742 40.4915L84 35L105.742 29.5085L94.2513 10.2513L113.508 21.7423L119 0Z" fill="#FA683F"/>
<path d="M6.86328 46.7695C7.18229 46.806 7.49674 46.8333 7.80664 46.8516C8.11654 46.8698 8.45833 46.8789 8.83203 46.8789C9.40625 46.8789 9.89388 46.8333 10.2949 46.7422C10.696 46.651 11.0423 46.5098 11.334 46.3184C11.6257 46.1178 11.8809 45.8763 12.0996 45.5938C12.3275 45.3112 12.569 44.9831 12.8242 44.6094H10.5957L0.341797 31.1426H7.82031L15.1211 40.918L21.793 31.1426H29.0391L18.5664 45.9902C17.9922 46.8105 17.4362 47.5716 16.8984 48.2734C16.3698 48.9661 15.7956 49.5768 15.1758 50.1055C14.5651 50.625 13.8815 51.0306 13.125 51.3223C12.3685 51.6048 11.4753 51.7461 10.4453 51.7461C9.28776 51.7461 8.09375 51.6641 6.86328 51.5V46.7695ZM41.7676 47.5488C42.9251 47.5488 43.7591 47.3665 44.2695 47.002C44.7799 46.6374 45.0352 46.0085 45.0352 45.1152V43.3242C45.0352 42.3945 44.7754 41.7565 44.2559 41.4102C43.7363 41.0638 42.9069 40.8906 41.7676 40.8906H39.416C38.2402 40.8906 37.3971 41.0684 36.8867 41.4238C36.3854 41.7793 36.1348 42.4036 36.1348 43.2969V45.0332C36.1348 45.9993 36.3717 46.6602 36.8457 47.0156C37.3288 47.3711 38.1855 47.5488 39.416 47.5488H41.7676ZM31.0352 37.1035H36.2168V39.7422C36.3353 38.6576 36.9095 37.9147 37.9395 37.5137C38.9785 37.1126 40.5417 36.9121 42.6289 36.9121C43.9779 36.9121 45.1309 36.9941 46.0879 37.1582C47.054 37.3132 47.8424 37.582 48.4531 37.9648C49.0729 38.3477 49.5195 38.849 49.793 39.4688C50.0755 40.0794 50.2168 40.8314 50.2168 41.7246V46.4824C50.2168 48.2598 49.6198 49.5358 48.4258 50.3105C47.2318 51.0853 45.3268 51.4727 42.7109 51.4727C41.7448 51.4727 40.8926 51.4408 40.1543 51.377C39.416 51.3132 38.778 51.1855 38.2402 50.9941C37.7116 50.7936 37.2786 50.5293 36.9414 50.2012C36.6133 49.873 36.3717 49.4401 36.2168 48.9023V56.3672H31.0352V37.1035ZM66.2812 49.7637C65.7435 50.4564 64.9186 50.9531 63.8066 51.2539C62.6947 51.5456 61.2773 51.6914 59.5547 51.6914C58.2878 51.6914 57.2122 51.6185 56.3281 51.4727C55.444 51.3268 54.7285 51.0716 54.1816 50.707C53.6439 50.3424 53.252 49.8457 53.0059 49.2168C52.7689 48.5879 52.6504 47.8086 52.6504 46.8789C52.6504 45.931 52.778 45.1471 53.0332 44.5273C53.2975 43.9076 53.7214 43.429 54.3047 43.0918C54.8971 42.7454 55.6491 42.5039 56.5605 42.3672C57.4811 42.2214 58.6022 42.1484 59.9238 42.1484C61.4368 42.1484 62.7129 42.2441 63.752 42.4355C64.8001 42.6178 65.6432 42.9323 66.2812 43.3789V41.834C66.2812 40.7949 65.6113 40.2754 64.2715 40.2754H60.0332C59.0306 40.2754 58.5293 40.64 58.5293 41.3691H53.3203V41.1914C53.3203 39.6055 53.9128 38.498 55.0977 37.8691C56.2826 37.2311 58.1237 36.9121 60.6211 36.9121H65.6934C67.653 36.9121 69.1022 37.2949 70.041 38.0605C70.9889 38.8262 71.4629 40.0293 71.4629 41.6699V51.5H66.2812V49.7637ZM63.6426 48.1367C64.5449 48.1367 65.2012 48.0365 65.6113 47.8359C66.0215 47.6263 66.2266 47.2344 66.2266 46.6602C66.2266 46.0768 66.0215 45.7031 65.6113 45.5391C65.2012 45.3659 64.5449 45.2793 63.6426 45.2793H60.4844C59.5911 45.2793 58.9395 45.3841 58.5293 45.5938C58.1191 45.7943 57.9141 46.1862 57.9141 46.7695C57.9141 47.3438 58.1191 47.7174 58.5293 47.8906C58.9395 48.0547 59.5911 48.1367 60.4844 48.1367H63.6426ZM74.8398 41.834C74.8398 40.9225 74.9674 40.1615 75.2227 39.5508C75.4779 38.931 75.8835 38.4434 76.4395 38.0879C77.0046 37.7324 77.7246 37.4818 78.5996 37.3359C79.4746 37.181 80.5456 37.1035 81.8125 37.1035H91.6973V51.5H86.5156V40.918H83.1934C82.5189 40.918 81.972 40.9453 81.5527 41C81.1335 41.0547 80.7962 41.1595 80.541 41.3145C80.2858 41.4603 80.1126 41.6836 80.0215 41.9844C79.9303 42.276 79.8848 42.6589 79.8848 43.1328V51.5H74.8398V41.834ZM95.8262 31.1426H121.023V51.5H114.803V36.0781H102.033V51.5H95.8262V31.1426ZM135.803 47.5488C136.96 47.5488 137.794 47.3665 138.305 47.002C138.815 46.6374 139.07 46.0085 139.07 45.1152V43.3242C139.07 42.3945 138.811 41.7565 138.291 41.4102C137.771 41.0638 136.942 40.8906 135.803 40.8906H133.451C132.275 40.8906 131.432 41.0684 130.922 41.4238C130.421 41.7793 130.17 42.4036 130.17 43.2969V45.0332C130.17 45.9993 130.407 46.6602 130.881 47.0156C131.364 47.3711 132.221 47.5488 133.451 47.5488H135.803ZM125.07 37.1035H130.252V39.7422C130.37 38.6576 130.945 37.9147 131.975 37.5137C133.014 37.1126 134.577 36.9121 136.664 36.9121C138.013 36.9121 139.166 36.9941 140.123 37.1582C141.089 37.3132 141.878 37.582 142.488 37.9648C143.108 38.3477 143.555 38.849 143.828 39.4688C144.111 40.0794 144.252 40.8314 144.252 41.7246V46.4824C144.252 48.2598 143.655 49.5358 142.461 50.3105C141.267 51.0853 139.362 51.4727 136.746 51.4727C135.78 51.4727 134.928 51.4408 134.189 51.377C133.451 51.3132 132.813 51.1855 132.275 50.9941C131.747 50.7936 131.314 50.5293 130.977 50.2012C130.648 49.873 130.407 49.4401 130.252 48.9023V56.3672H125.07V37.1035ZM154.424 51.6914C153.193 51.6914 152.122 51.6003 151.211 51.418C150.309 51.2266 149.561 50.9258 148.969 50.5156C148.385 50.1055 147.948 49.5677 147.656 48.9023C147.374 48.2279 147.232 47.3939 147.232 46.4004V42.4902C147.232 41.4785 147.355 40.6172 147.602 39.9062C147.857 39.1953 148.262 38.6211 148.818 38.1836C149.383 37.7461 150.122 37.4271 151.033 37.2266C151.945 37.0169 153.066 36.9121 154.396 36.9121H159.605C160.872 36.9121 161.957 37.0169 162.859 37.2266C163.771 37.4271 164.514 37.7415 165.088 38.1699C165.671 38.5983 166.095 39.1589 166.359 39.8516C166.633 40.5443 166.77 41.3646 166.77 42.3125V46.3184C166.77 47.3301 166.628 48.1823 166.346 48.875C166.072 49.5586 165.644 50.11 165.061 50.5293C164.486 50.9486 163.743 51.2493 162.832 51.4316C161.93 51.6048 160.854 51.6914 159.605 51.6914H154.424ZM158.225 47.8086C159.4 47.8086 160.253 47.6263 160.781 47.2617C161.319 46.8971 161.588 46.2272 161.588 45.252V43.3516C161.588 42.4036 161.324 41.7428 160.795 41.3691C160.275 40.9954 159.419 40.8086 158.225 40.8086H155.791C155.162 40.8086 154.629 40.8496 154.191 40.9316C153.763 41.0137 153.412 41.1595 153.139 41.3691C152.874 41.5697 152.683 41.8385 152.564 42.1758C152.455 42.513 152.4 42.9323 152.4 43.4336V45.2793C152.4 46.2363 152.665 46.8971 153.193 47.2617C153.731 47.6263 154.597 47.8086 155.791 47.8086H158.225ZM170.297 37.1035H177.338L181.973 45.6758L186.621 37.1035H193.648V51.5H188.59V41.9844L183.436 51.5H180.523L175.369 41.9844V51.5H170.297V37.1035ZM62.9453 65.1426H70.875L81.7852 85.5H74.9629L72.9941 82.1094H60.5938L58.6113 85.5H51.8301L62.9453 65.1426ZM70.7656 77.2148L66.8145 70.0098L62.9453 77.2148H70.7656ZM83.7812 71.1035H96.7832C97.5853 71.1035 98.3099 71.1582 98.957 71.2676C99.6133 71.3678 100.174 71.5638 100.639 71.8555C101.113 72.138 101.468 72.5436 101.705 73.0723C101.951 73.5918 102.074 74.2708 102.074 75.1094C102.074 76.6042 101.363 77.6204 99.9414 78.1582C100.743 78.3678 101.382 78.7324 101.855 79.252C102.339 79.7624 102.58 80.4642 102.58 81.3574C102.58 82.1777 102.471 82.8568 102.252 83.3945C102.042 83.9232 101.719 84.3424 101.281 84.6523C100.853 84.9531 100.311 85.1719 99.6543 85.3086C99.0072 85.4362 98.2552 85.5 97.3984 85.5H83.7812V71.1035ZM95.9082 76.5723C96.528 76.5723 96.8379 76.2441 96.8379 75.5879C96.8379 75.2689 96.7513 75.0273 96.5781 74.8633C96.4141 74.6901 96.1908 74.6035 95.9082 74.6035H88.9629V76.5723H95.9082ZM97.2617 80.8242C97.2617 80.487 97.166 80.2318 96.9746 80.0586C96.7923 79.8763 96.5417 79.7852 96.2227 79.7852H88.9629V81.9453H96.2227C96.9154 81.9453 97.2617 81.5716 97.2617 80.8242ZM110.277 74.918H104.617V71.1035H121.105V74.918H115.459V85.5H110.277V74.918ZM130.334 85.6914C129.104 85.6914 128.033 85.6003 127.121 85.418C126.219 85.2266 125.471 84.9258 124.879 84.5156C124.296 84.1055 123.858 83.5677 123.566 82.9023C123.284 82.2279 123.143 81.3939 123.143 80.4004V76.4902C123.143 75.4785 123.266 74.6172 123.512 73.9062C123.767 73.1953 124.173 72.6211 124.729 72.1836C125.294 71.7461 126.032 71.4271 126.943 71.2266C127.855 71.0169 128.976 70.9121 130.307 70.9121H135.516C136.783 70.9121 137.867 71.0169 138.77 71.2266C139.681 71.4271 140.424 71.7415 140.998 72.1699C141.581 72.5983 142.005 73.1589 142.27 73.8516C142.543 74.5443 142.68 75.3646 142.68 76.3125V80.3184C142.68 81.3301 142.538 82.1823 142.256 82.875C141.982 83.5586 141.554 84.11 140.971 84.5293C140.396 84.9486 139.654 85.2493 138.742 85.4316C137.84 85.6048 136.764 85.6914 135.516 85.6914H130.334ZM134.135 81.8086C135.311 81.8086 136.163 81.6263 136.691 81.2617C137.229 80.8971 137.498 80.2272 137.498 79.252V77.3516C137.498 76.4036 137.234 75.7428 136.705 75.3691C136.186 74.9954 135.329 74.8086 134.135 74.8086H131.701C131.072 74.8086 130.539 74.8496 130.102 74.9316C129.673 75.0137 129.322 75.1595 129.049 75.3691C128.785 75.5697 128.593 75.8385 128.475 76.1758C128.365 76.513 128.311 76.9323 128.311 77.4336V79.2793C128.311 80.2363 128.575 80.8971 129.104 81.2617C129.641 81.6263 130.507 81.8086 131.701 81.8086H134.135Z" fill="white"/>
<path d="M6.30005 31.85C9.10005 37.8 53.2001 82.25 70.3501 81.55" stroke="#FA683F" stroke-width="9.1"/>
<path d="M6.30005 31.85C9.10005 37.8 53.2001 82.25 70.3501 81.55" stroke="white" stroke-width="2.1" stroke-dasharray="13.3 13.3"/>
</svg>
